# Blender v2.79 (sub 0) OBJ File: 'Crow.blend'
# www.blender.org
mtllib rightwing.mtl
o Cylinder.001
v 0.762544 3.922594 0.146455
v 0.897006 4.149198 -0.430762
v 0.975217 4.102789 -0.430762
v 0.840755 3.876185 0.146455
v 0.996293 4.316523 0.194111
v 1.124220 4.532114 -0.181778
v 1.202431 4.485705 -0.181778
v 1.074504 4.270114 0.194111
v 0.902520 4.158490 -0.620020
v 0.980730 4.112082 -0.620020
v 1.157794 4.588695 -0.480560
v 1.236005 4.542286 -0.480560
v 0.864940 4.095158 -0.915861
v 0.943151 4.048749 -0.915861
v 1.068358 4.437972 -0.943992
v 1.146569 4.391563 -0.943992
v 0.912610 4.175494 -1.320875
v 0.990820 4.129086 -1.320875
v 1.092018 4.477845 -1.091920
v 1.170229 4.431437 -1.091920
v 1.147683 4.571653 -1.937719
v 1.225893 4.525245 -1.937719
v 1.272452 4.781922 -1.451545
v 1.350662 4.735514 -1.451545
v 1.212519 4.680919 -2.180764
v 1.290729 4.634511 -2.180764
v 1.352430 4.916707 -1.829677
v 1.430640 4.870298 -1.829677
v 1.209407 4.675675 -2.227975
v 1.287618 4.629267 -2.227975
v 1.365666 4.939014 -2.214839
v 1.443877 4.892606 -2.214839
v 1.108357 4.327166 -1.629297
v 1.030146 4.373574 -1.629297
v 1.260446 4.583475 -1.271733
v 1.182235 4.629884 -1.271733
v 0.879419 4.119558 0.170283
v 1.010613 4.340656 -0.306270
v 1.088824 4.294248 -0.306270
v 0.957629 4.073150 0.170283
v 1.030157 4.373592 -0.550290
v 1.108368 4.327184 -0.550290
v 0.966649 4.266564 -0.929927
v 1.044860 4.220156 -0.929927
v 1.002314 4.326669 -1.206398
v 1.080525 4.280261 -1.206397
v 1.210067 4.676788 -1.694632
v 1.288278 4.630380 -1.694632
v 1.282474 4.798813 -2.005221
v 1.360685 4.752404 -2.005220
v 1.287536 4.807344 -2.221407
v 1.365747 4.760936 -2.221407
v 1.184401 4.455320 -1.450515
v 1.106191 4.501729 -1.450515
v 1.060257 4.424318 0.006167
v 0.829775 4.035896 -0.142154
v 1.138467 4.377910 0.006167
v 0.907986 3.989487 -0.142154
v 0.945016 4.230107 -0.067994
v 1.023226 4.183699 -0.067993
v 0.102036 2.778330 -1.109535
v 0.152920 2.748137 -1.109535
v 0.058296 2.704616 -0.921767
v 0.109180 2.674422 -0.921767
v 0.069240 2.687740 -1.098101
v 0.089125 2.675941 -1.098101
v 0.052146 2.658934 -1.024722
v 0.072031 2.647134 -1.024722
v 0.073491 2.756956 -1.138191
v 0.147839 2.712840 -1.138191
v 0.078732 2.765789 -1.318102
v 0.153080 2.721673 -1.318102
v 0.052165 2.695603 -1.170622
v 0.104208 2.664722 -1.170622
v 0.055834 2.701786 -1.296558
v 0.107876 2.670905 -1.296558
v 0.071122 2.740329 -0.579593
v 0.134380 2.702793 -0.579593
v 0.125499 2.831968 -0.813021
v 0.188756 2.794433 -0.813021
v 0.043336 2.672564 -0.672216
v 0.088216 2.645933 -0.672217
v 0.081915 2.737580 -0.837829
v 0.126795 2.710949 -0.837829
v 0.076859 2.753919 -1.417650
v 0.143559 2.714340 -1.417650
v 0.114972 2.818150 -1.665171
v 0.181672 2.778571 -1.665171
v 0.056216 2.696308 -1.486283
v 0.102885 2.668615 -1.486283
v 0.082883 2.741249 -1.659469
v 0.129552 2.713557 -1.659469
v 0.476869 3.445100 -0.497770
v 0.558542 3.396638 -0.497770
v 0.488335 3.278321 -0.196387
v 0.406663 3.326783 -0.196387
v 0.509156 3.323610 -0.516880
v 0.436436 3.366760 -0.516880
v 0.498948 3.472108 -0.785228
v 0.571668 3.428958 -0.785228
v 0.539421 3.583548 -0.681094
v 0.547223 3.596695 -0.948886
v 0.657887 3.531029 -0.948886
v 0.650086 3.517882 -0.681094
v 0.479300 3.480458 -0.942794
v 0.478629 3.479329 -1.351995
v 0.587741 3.414584 -1.351995
v 0.588412 3.415714 -0.942794
v 0.130989 2.844026 -1.718426
v 0.196710 2.805029 -1.718426
v 0.171046 2.911533 -2.058759
v 0.236767 2.872536 -2.058759
v 0.080418 2.726728 -1.892741
v 0.117989 2.704435 -1.892741
v 0.103317 2.765321 -2.087303
v 0.140889 2.743027 -2.087303
v 0.506052 3.494855 -1.273824
v 0.556139 3.579266 -1.699378
v 0.638316 3.530504 -1.699378
v 0.588229 3.446093 -1.273824
v 0.192793 2.962412 -2.222028
v 0.271003 2.916003 -2.222028
v 0.372296 3.086709 -2.561276
v 0.294086 3.133118 -2.561276
v 0.156937 2.862271 -2.424853
v 0.200289 2.836547 -2.424853
v 0.256435 2.931168 -2.612896
v 0.213084 2.956892 -2.612896
v 0.608739 3.674546 -2.185665
v 0.696741 3.622328 -2.185665
v 0.486997 3.469380 -1.818683
v 0.574999 3.417161 -1.818683
v 0.335213 3.188031 -3.048697
v 0.413424 3.141623 -3.048698
v 0.324488 2.991742 -2.690517
v 0.246277 3.038150 -2.690518
v 0.274621 3.050894 -3.059870
v 0.322090 3.022727 -3.059870
v 0.268112 2.931758 -2.842477
v 0.220643 2.959925 -2.842477
v 0.762477 3.744843 -2.130078
v 0.695817 3.784398 -2.130079
v 0.850936 3.893920 -2.413338
v 0.784276 3.933475 -2.413338
v 0.323118 3.249838 -3.078185
v 0.458414 3.169557 -3.078185
v 0.435276 3.438854 -3.498626
v 0.570572 3.358573 -3.498626
v 0.246843 3.080447 -3.307652
v 0.336506 3.027244 -3.307652
v 0.321172 3.205712 -3.586285
v 0.410835 3.152508 -3.586285
v 1.353601 4.918681 -2.522021
v 1.431812 4.872272 -2.522021
v 1.282829 4.799412 -2.443301
v 1.361040 4.753003 -2.443301
v 0.441357 3.387214 -3.523753
v 0.557352 3.582697 -4.017773
v 0.367939 3.263485 -3.856737
v 0.446124 3.395248 -4.189727
v 1.287536 4.807344 -2.221407
v 1.365747 4.760936 -2.221407
v 1.282829 4.799412 -2.443301
v 1.361040 4.753003 -2.443301
v 0.509213 3.600000 -4.191220
v 0.679002 3.499251 -4.191220
v 0.637150 3.815609 -4.566318
v 0.806939 3.714859 -4.566318
v 0.463321 3.410369 -4.745109
v 0.534550 3.368104 -4.745109
v 0.516993 3.500820 -4.902467
v 0.588222 3.458555 -4.902467
v 0.775813 4.095697 -5.231623
v 0.986331 3.970779 -5.231623
v 0.585316 3.774659 -5.019732
v 0.795835 3.649741 -5.019732
v 0.585316 3.774659 -5.019732
v 0.795835 3.649741 -5.019732
v 0.696590 3.811755 -5.566446
v 0.775074 3.765184 -5.566446
v 0.625571 3.692069 -5.487452
v 0.704055 3.645498 -5.487452
v 0.625571 3.692069 -5.487452
v 0.704055 3.645498 -5.487452
v 1.254257 4.649028 -2.228009
v 1.332387 4.780697 -2.221441
v 0.486207 3.360567 -3.523786
v 0.602202 3.556049 -4.017806
v 0.412789 3.236838 -3.856772
v 0.490974 3.368600 -4.189760
vn -0.8600 0.5103 -0.0000
vn -0.8708 0.4916 -0.0012
vn 0.8600 -0.5103 -0.0000
vn -0.0528 -0.0890 0.9946
vn -0.2393 -0.4034 0.8832
vn 0.4245 0.7155 0.5548
vn -0.8747 0.4847 -0.0033
vn 0.4984 0.8399 0.2150
vn -0.8657 0.5006 -0.0026
vn 0.4773 0.8044 -0.3537
vn -0.2761 -0.4653 0.8410
vn 0.4869 0.8206 0.2991
vn -0.8517 0.5240 0.0084
vn 0.3639 0.6132 0.7011
vn -0.5061 -0.8529 0.1281
vn 0.4714 0.7945 0.3829
vn 0.0219 0.0369 -0.9991
vn 0.5091 0.8581 0.0672
vn 0.2625 0.4424 -0.8576
vn 0.0000 0.0000 1.0000
vn 0.2079 0.3504 -0.9132
vn -0.4718 -0.7951 0.3810
vn -0.8667 0.4987 -0.0061
vn 0.8531 -0.5218 -0.0061
vn 0.1919 0.3234 -0.9266
vn -0.4642 -0.7823 -0.4153
vn -0.9400 0.3290 -0.0898
vn 0.7392 -0.6674 -0.0898
vn -0.0612 -0.1032 -0.9928
vn -0.9427 0.3335 -0.0111
vn 0.8487 -0.5288 -0.0012
vn 0.1842 0.3105 -0.9325
vn -0.2215 -0.3733 0.9009
vn -0.5095 -0.8586 -0.0570
vn 0.7445 -0.6676 -0.0111
vn -0.1568 -0.2642 -0.9516
vn -0.2317 -0.3904 0.8910
vn 0.1190 0.2006 -0.9724
vn 0.8535 -0.5211 -0.0057
vn -0.2518 -0.4243 0.8698
vn -0.8663 0.4994 -0.0057
vn 0.8083 -0.5873 -0.0423
vn -0.4019 -0.6774 0.6161
vn -0.9028 0.4280 -0.0423
vn -0.9232 0.3820 -0.0430
vn 0.8446 -0.5354 -0.0033
vn 0.1957 0.3298 -0.9235
vn -0.2534 -0.4270 0.8680
vn -0.4885 -0.8233 -0.2889
vn 0.7777 -0.6272 -0.0430
vn -0.0352 -0.0593 -0.9976
vn -0.3840 -0.6471 0.6587
vn 0.2343 0.3948 -0.8884
vn 0.8612 -0.5083 0.0011
vn -0.2260 -0.3809 0.8966
vn -0.8588 0.5123 0.0011
vn -0.2219 -0.3739 0.9005
vn -0.8617 0.5074 -0.0015
vn 0.8583 -0.5132 -0.0015
vn 0.2099 0.3538 -0.9115
vn -0.8456 0.5338 0.0016
vn 0.8738 -0.4864 0.0016
vn 0.2264 0.3815 -0.8962
vn -0.1789 -0.3014 0.9366
vn -0.8470 0.5315 -0.0026
vn 0.8724 -0.4888 -0.0026
vn 0.2626 0.4425 -0.8574
vn -0.1911 -0.3221 0.9272
vn -0.9055 0.4238 -0.0225
vn 0.8542 -0.5199 -0.0026
vn 0.2156 0.3634 -0.9063
vn -0.2599 -0.4381 0.8605
vn -0.4972 -0.8380 -0.2247
vn 0.8059 -0.5916 -0.0225
vn 0.0895 0.1508 -0.9845
vn -0.4128 -0.6957 0.5879
vn -0.8585 0.5128 0.0007
vn 0.8615 -0.5078 0.0007
vn 0.2442 0.4115 -0.8781
vn -0.2325 -0.3918 0.8902
vn 0.1319 0.2223 -0.9660
vn -0.8634 0.5045 -0.0042
vn 0.8565 -0.5161 -0.0042
vn -0.2893 -0.4875 0.8238
vn -0.4404 -0.7423 -0.5050
vn -0.9014 0.4298 -0.0529
vn 0.8092 -0.5852 -0.0529
vn -0.4537 -0.7646 0.4577
vn 0.2874 0.4844 -0.8263
vn -0.8575 0.5144 0.0033
vn 0.8624 -0.5062 0.0033
vn -0.2638 -0.4445 0.8561
vn -0.4511 -0.7603 0.4675
vn 0.8632 -0.5048 0.0035
vn -0.8575 0.5145 0.0026
vn 0.3009 0.5071 -0.8076
vn -0.4589 -0.7733 -0.4375
vn 0.7943 -0.6049 -0.0559
vn -0.9116 0.4073 -0.0559
vn 0.0382 0.0644 -0.9972
vn -0.3034 -0.5113 0.8041
vn 0.8599 -0.5105 -0.0002
vn -0.8663 0.4994 -0.0086
vn 0.2774 0.4675 -0.8393
vn -0.8923 0.4501 -0.0357
vn 0.8674 -0.4975 0.0077
vn 0.3413 0.5752 -0.7434
vn -0.3015 -0.5081 0.8068
vn -0.4522 -0.7621 -0.4633
vn 0.8003 -0.5970 -0.0549
vn 0.1638 0.2760 -0.9471
vn -0.3976 -0.6701 0.6268
vn 0.5088 0.8575 -0.0767
vn 0.3159 0.5327 -0.7851
vn -0.4687 -0.7893 0.3966
vn -0.8470 0.5316 0.0101
vn -0.9056 0.4186 -0.0683
vn 0.8724 -0.4887 0.0101
vn 0.4464 0.7524 -0.4844
vn -0.4124 -0.6950 0.5889
vn -0.4243 -0.7150 -0.5557
vn 0.8014 -0.5943 -0.0683
vn 0.3631 0.6118 -0.7027
vn -0.4836 -0.8150 0.3191
vn -0.4600 -0.7752 0.4329
vn 0.8665 -0.4987 0.0235
vn -0.8529 0.5216 0.0235
vn 0.4786 0.8065 -0.3470
vn -0.2519 -0.4245 -0.8697
vn -0.5074 -0.8550 0.1073
vn 0.8026 -0.5767 -0.1523
vn -0.8908 0.4281 -0.1523
vn 0.3888 0.6552 -0.6477
vn 0.8594 -0.5113 -0.0009
vn -0.4643 -0.7809 -0.4180
vn -0.3335 -0.5622 0.7567
vn 0.3997 0.6736 -0.6217
vn -0.0213 -0.0372 0.9991
vn -0.8594 0.5113 0.0009
usemtl Material
s off
f 59//1 38//1 2//1 56//1
f 101//2 102//2 71//2 69//2
f 60//3 40//3 4//3 58//3
f 40//4 37//4 1//4 4//4
f 97//5 98//5 63//5 64//5
f 57//6 7//6 6//6 55//6
f 105//7 106//7 87//7 85//7
f 39//3 3//3 10//3 42//3
f 6//8 7//8 12//8 11//8
f 38//1 6//1 11//1 41//1
f 117//9 118//9 111//9 109//9
f 42//3 10//3 14//3 44//3
f 11//10 12//10 16//10 15//10
f 41//1 11//1 15//1 43//1
f 141//11 142//11 136//11 135//11
f 44//3 14//3 18//3 46//3
f 15//12 16//12 20//12 19//12
f 43//1 15//1 19//1 45//1
f 21//13 25//13 147//13 145//13
f 53//3 33//3 22//3 48//3
f 36//14 35//14 24//14 23//14
f 54//1 36//1 23//1 47//1
f 26//15 25//15 29//15 30//15
f 48//3 22//3 26//3 50//3
f 23//16 24//16 28//16 27//16
f 47//1 23//1 27//1 49//1
f 51//17 52//17 30//17 29//17
f 50//3 26//3 30//3 52//3
f 27//18 28//18 32//18 31//18
f 49//1 27//1 31//1 51//1
f 129//19 130//19 123//19 124//19
f 46//3 18//3 33//3 53//3
f 19//14 20//14 35//14 36//14
f 45//1 19//1 36//1 54//1
f 55//1 6//1 38//1 59//1
f 57//3 8//3 40//3 60//3
f 8//4 5//4 37//4 40//4
f 7//3 39//3 42//3 12//3
f 2//1 38//1 41//1 9//1
f 12//3 42//3 44//3 16//3
f 9//1 41//1 43//1 13//1
f 16//3 44//3 46//3 20//3
f 13//1 43//1 45//1 17//1
f 35//3 53//3 48//3 24//3
f 34//1 54//1 47//1 21//1
f 24//3 48//3 50//3 28//3
f 21//1 47//1 49//1 25//1
f 51//20 155//20 163//20 161//20
f 28//3 50//3 52//3 32//3
f 25//1 49//1 51//1 29//1
f 20//3 46//3 53//3 35//3
f 17//1 45//1 54//1 34//1
f 37//1 59//1 56//1 1//1
f 39//3 60//3 58//3 3//3
f 93//21 94//21 80//21 79//21
f 8//6 57//6 55//6 5//6
f 5//1 55//1 59//1 37//1
f 7//3 57//3 60//3 39//3
f 64//22 63//22 67//22 68//22
f 98//23 99//23 61//23 63//23
f 100//24 97//24 64//24 62//24
f 99//25 100//25 62//25 61//25
f 67//26 65//26 66//26 68//26
f 63//27 61//27 65//27 67//27
f 62//28 64//28 68//28 66//28
f 61//29 62//29 66//29 65//29
f 69//30 71//30 75//30 73//30
f 103//31 104//31 70//31 72//31
f 102//32 103//32 72//32 71//32
f 104//33 101//33 69//33 70//33
f 74//34 73//34 75//34 76//34
f 72//35 70//35 74//35 76//35
f 71//36 72//36 76//36 75//36
f 70//37 69//37 73//37 74//37
f 79//38 80//38 84//38 83//38
f 94//39 95//39 78//39 80//39
f 95//40 96//40 77//40 78//40
f 96//41 93//41 79//41 77//41
f 81//26 83//26 84//26 82//26
f 80//42 78//42 82//42 84//42
f 78//43 77//43 81//43 82//43
f 77//44 79//44 83//44 81//44
f 85//45 87//45 91//45 89//45
f 107//46 108//46 86//46 88//46
f 106//47 107//47 88//47 87//47
f 108//48 105//48 85//48 86//48
f 90//49 89//49 91//49 92//49
f 88//50 86//50 90//50 92//50
f 87//51 88//51 92//51 91//51
f 86//52 85//52 89//52 90//52
f 56//53 58//53 94//53 93//53
f 58//54 4//54 95//54 94//54
f 4//55 1//55 96//55 95//55
f 1//56 56//56 93//56 96//56
f 58//57 56//57 98//57 97//57
f 56//58 2//58 99//58 98//58
f 3//59 58//59 97//59 100//59
f 2//60 3//60 100//60 99//60
f 2//61 9//61 102//61 101//61
f 10//62 3//62 104//62 103//62
f 9//63 10//63 103//63 102//63
f 3//64 2//64 101//64 104//64
f 9//65 13//65 106//65 105//65
f 14//66 10//66 108//66 107//66
f 13//67 14//67 107//67 106//67
f 10//68 9//68 105//68 108//68
f 109//69 111//69 115//69 113//69
f 119//70 120//70 110//70 112//70
f 118//71 119//71 112//71 111//71
f 120//72 117//72 109//72 110//72
f 114//73 113//73 115//73 116//73
f 112//74 110//74 114//74 116//74
f 111//75 112//75 116//75 115//75
f 110//76 109//76 113//76 114//76
f 13//77 17//77 118//77 117//77
f 18//78 14//78 120//78 119//78
f 17//79 18//79 119//79 118//79
f 14//80 13//80 117//80 120//80
f 124//81 123//81 127//81 128//81
f 131//82 129//82 124//82 121//82
f 130//83 132//83 122//83 123//83
f 132//84 131//84 121//84 122//84
f 126//85 125//85 128//85 127//85
f 121//86 124//86 128//86 125//86
f 123//87 122//87 126//87 127//87
f 122//88 121//88 125//88 126//88
f 34//89 33//89 130//89 129//89
f 17//90 34//90 129//90 131//90
f 33//91 18//91 132//91 130//91
f 18//92 17//92 131//92 132//92
f 135//93 136//93 140//93 139//93
f 143//94 141//94 135//94 134//94
f 142//95 144//95 133//95 136//95
f 144//96 143//96 134//96 133//96
f 139//97 140//97 137//97 138//97
f 134//98 135//98 139//98 138//98
f 136//99 133//99 137//99 140//99
f 133//100 134//100 138//100 137//100
f 33//101 34//101 142//101 141//101
f 22//102 33//102 141//102 143//102
f 34//103 21//103 144//103 142//103
f 21//104 22//104 143//104 144//104
f 145//105 147//105 151//105 149//105
f 26//106 22//106 146//106 148//106
f 25//107 26//107 148//107 147//107
f 22//108 21//108 145//108 146//108
f 150//109 149//109 151//109 152//109
f 148//110 146//110 150//110 152//110
f 147//111 148//111 152//111 151//111
f 146//112 145//112 149//112 150//112
f 163//20 155//20 175//20 177//20
f 32//3 52//3 156//3 154//3
f 51//1 31//1 153//1 155//1
f 31//113 32//113 154//113 153//113
f 160//114 158//114 188//114 190//114
f 157//115 159//115 189//115 187//115
f 161//116 163//116 167//116 165//116
f 156//20 52//20 162//20 164//20
f 156//20 164//20 178//20 176//20
f 52//20 51//20 161//20 162//20
f 165//117 167//117 171//117 169//117
f 164//118 162//118 166//118 168//118
f 163//119 164//119 168//119 167//119
f 162//120 161//120 165//120 166//120
f 170//121 169//121 171//121 172//121
f 168//122 166//122 170//122 172//122
f 167//123 168//123 172//123 171//123
f 166//124 165//124 169//124 170//124
f 177//20 175//20 181//20 183//20
f 176//20 178//20 184//20 182//20
f 164//125 163//125 177//125 178//125
f 154//126 156//126 176//126 174//126
f 155//127 153//127 173//127 175//127
f 153//128 154//128 174//128 173//128
f 179//129 180//129 182//129 181//129
f 181//20 182//20 184//20 183//20
f 178//130 177//130 183//130 184//130
f 174//131 176//131 182//131 180//131
f 175//132 173//132 179//132 181//132
f 173//133 174//133 180//133 179//133
f 186//134 185//134 187//134 188//134
f 188//3 187//3 189//3 190//3
f 159//135 160//135 190//135 189//135
f 29//136 157//136 187//136 185//136
f 158//137 51//137 186//137 188//137
f 51//138 29//138 185//138 186//138
f 159//1 157//1 158//1 160//1
f 157//139 29//139 161//139 158//139
